# xmcd
#
# Track frame offsets: 
#        150
#        13059
#        31892
#        45326
#        58460
#        75119
#        89001
#        112035
#        121343
#        150527
#        170561
#
# Disc length: 2515 seconds
#
# Revision: 1
# Processed by: cddbd v1.5.2PL0 Copyright (c) Steve Scherf et al.
# Submitted via: ExactAudioCopy v0.99pb5
#
DISCID=8409d10b
DTITLE=Pee Wee Crayton - Things I Used To Do
DYEAR=1991
DGENRE=Blues
TTITLE0=Every Night
TTITLE1=But On The Other Hand
TTITLE2=Peace Of Mind
TTITLE3=Let The Good Times Roll
TTITLE4=Blues After Hours
TTITLE5=You Were Wrong
TTITLE6=Things I Used To Do
TTITLE7=Little Bitty Things
TTITLE8=S.K. Blues
TTITLE9=Long Tall Texan
TTITLE10=My Kind Of Woman
EXTD=
EXTT0=
EXTT1=
EXTT2=
EXTT3=
EXTT4=
EXTT5=
EXTT6=
EXTT7=
EXTT8=
EXTT9=
EXTT10=
PLAYORDER=
